# ProBuilder 4.4.0
# https://unity3d.com/unity/features/worldbuilding/probuilder
# 2021-01-06 15:20:31

mtllib ./Trench.mtl
o Trench

g Arch
v 1.927082 0.9635413 8.294987E-07
v 2.070826 1.500001 6.047855E-07
v 0 0 20.7
v 0.4019239 1.5 20.7
v 2.225688 1.410591 1.28469E-06
v 2.105902 0.9635413 8.081818E-07
v 0.8349366 1.25 20.7
v 0.5 0 20.7
v 2.463541 1.892717 6.531496E-07
v 1.5 2.598076 20.7
v 2.552951 1.737855 2.54396E-06
v 1.75 2.165064 20.7
v 3.000001 2.03646 3.329729E-07
v 3 3 20.7
v 3.000001 1.857641 1.636642E-06
v 3 2.5 20.7
v 3.53646 1.892717 5.717789E-07
v 4.5 2.598076 20.7
v 3.44705 1.737855 2.437375E-06
v 4.25 2.165063 20.7
v 3.929175 1.500001 3.83253E-07
v 5.598076 1.5 20.7
v 3.774313 1.410591 1.10008E-06
v 5.165063 1.25 20.7
v 4.072919 0.9635413 5.73695E-07
v 6 -2.622683E-07 20.7
v 3.8941 0.9635413 5.95012E-07
v 5.5 -2.185569E-07 20.7

vt -0.1548643 1.426563
vt -0.1664162 1.981826
vt 20.63305 0.429247
vt 20.60075 1.981825
vt 0.1446012 1.936419
vt 0.1368191 1.473665
vt -20.60202 1.770186
vt -20.62378 0.4762741
vt 0 20.67761
vt 0.5 20.67761
vt 1.927082 -0.04480147
vt 2.105902 -0.04480149
vt -2.524956 -0.02297312
vt -3.080339 -0.02297307
vt -1.344864 20.71064
vt -2.897779 20.71064
vt 3.034057 -0.02419607
vt 2.571237 -0.02419733
vt 2.768368 20.69407
vt 1.474273 20.69407
vt -2.869468 0.05347869
vt -3.424852 0.05347837
vt -2.121319 20.77439
vt -3.674233 20.77439
vt 3.37857 0.03049863
vt 2.915751 0.03049953
vt 3.544824 20.7398
vt 2.250729 20.7398
vt -2.370703 0.1232295
vt -2.926087 0.1232298
vt -2.12132 20.84414
vt -3.674234 20.84414
vt 2.879807 0.07702602
vt 2.416987 0.07702521
vt 3.544827 20.78632
vt 2.250732 20.78632
vt -1.162301 0.2185045
vt -1.717685 0.2185043
vt -1.344862 20.95212
vt -2.897776 20.95212
vt 1.671399 0.1539298
vt 1.208579 0.1539312
vt 2.768362 20.8722
vt 1.474267 20.8722
vt -0.3157585 0.4386067
vt -0.3273103 -0.1166571
vt -21.08293 0.4386059
vt -21.11522 -1.113973
vt 0.252999 -0.07291559
vt 0.245217 0.3898388
vt 21.0136 -1.070306
vt 20.99184 0.2236063
vt 5.5 20.67761
vt 6 20.67761
vt 3.8941 -0.04480173
vt 4.072919 -0.04480175
vt 0 0
vt 0.4019239 1.5
vt 0.5 0
vt 0.8349366 1.25
vt -2.070826 1.500001
vt -1.927082 0.9635413
vt -2.225688 1.410591
vt -2.105902 0.9635413
vt 1.5 2.598076
vt 1.75 2.165064
vt -2.463541 1.892717
vt -2.552951 1.737855
vt 3 3
vt 3 2.5
vt -3.000001 2.03646
vt -3.000001 1.857641
vt 4.5 2.598076
vt 4.25 2.165063
vt -3.53646 1.892717
vt -3.44705 1.737855
vt 5.598076 1.5
vt 5.165063 1.25
vt -3.929175 1.500001
vt -3.774313 1.410591
vt 6 -2.622683E-07
vt 5.5 -2.185569E-07
vt -4.072919 0.9635413
vt -3.8941 0.9635413

vn -0.9630101 0.2580378 -0.07764103
vn 0.9640214 -0.2583087 0.06276485
vn 0 -0.9989184 -0.04649754
vn -0.7059612 0.7059599 -0.05691687
vn 0.7064843 -0.7064824 0.04198492
vn -0.2585571 0.9649512 -0.04491631
vn 0.258702 -0.9654924 0.02996102
vn 0.2585579 0.964951 -0.04491634
vn -0.2587022 -0.9654924 0.02996095
vn 0.7059608 0.7059603 -0.05691677
vn -0.7064842 -0.7064824 0.04198496
vn 0.9630101 0.2580378 -0.07764095
vn -0.9640213 -0.2583092 0.06276476
vn 0 0 1
vn 3.592741E-06 -1.381554E-06 -1

usemtl ProBuilderDefault
f 3/3/1 4/4/1 2/2/1 1/1/1
f 7/7/2 8/8/2 6/6/2 5/5/2
f 1/11/3 6/12/3 8/10/3 3/9/3
f 4/15/4 10/16/4 9/14/4 2/13/4
f 12/19/5 7/20/5 5/18/5 11/17/5
f 10/23/6 14/24/6 13/22/6 9/21/6
f 16/27/7 12/28/7 11/26/7 15/25/7
f 14/31/8 18/32/8 17/30/8 13/29/8
f 20/35/9 16/36/9 15/34/9 19/33/9
f 18/39/10 22/40/10 21/38/10 17/37/10
f 24/43/11 20/44/11 19/42/11 23/41/11
f 22/47/12 26/48/12 25/46/12 21/45/12
f 28/51/13 24/52/13 23/50/13 27/49/13
f 27/55/3 25/56/3 26/54/3 28/53/3
f 8/59/14 7/60/14 4/58/14 3/57/14
f 5/63/15 6/64/15 1/62/15 2/61/15
f 7/60/14 12/66/14 10/65/14 4/58/14
f 11/68/15 5/63/15 2/61/15 9/67/15
f 12/66/14 16/70/14 14/69/14 10/65/14
f 15/72/15 11/68/15 9/67/15 13/71/15
f 16/70/14 20/74/14 18/73/14 14/69/14
f 19/76/15 15/72/15 13/71/15 17/75/15
f 20/74/14 24/78/14 22/77/14 18/73/14
f 23/80/15 19/76/15 17/75/15 21/79/15
f 24/78/14 28/82/14 26/81/14 22/77/14
f 27/84/15 23/80/15 21/79/15 25/83/15

